<svg
  xmlns="http://www.w3.org/2000/svg"
  xmlns:xlink="http://www.w3.org/1999/xlink"
  viewBox="0 0 100% 100%"
  preserveAspectRatio="none"
>
  <g id="original" class="original">
    <path d="M13.5092038,-1.84824164e-16 L14.4907962,2.77236246e-16 C17.5909798,-2.92258242e-16 19.9055187,0.556953667 21.8610742,1.60279622 C23.8166298,2.64863878 25.3513612,4.18337022 26.3972038,6.13892578 C27.4430463,8.09448133 28,10.4090202 28,13.5092038 L28,14.4907962 C28,17.5909798 27.4430463,19.9055187 26.3972038,21.8610742 C25.3513612,23.8166298 23.8166298,25.3513612 21.8610742,26.3972038 C19.9055187,27.4430463 17.5909798,28 14.4907962,28 L13.5092038,28 C10.4090202,28 8.09448133,27.4430463 6.13892578,26.3972038 C4.18337022,25.3513612 2.64863878,23.8166298 1.60279622,21.8610742 C0.556953667,19.9055187 9.74194139e-17,17.5909798 -9.2412082e-17,14.4907962 L1.84824164e-16,13.5092038 C-1.94838828e-16,10.4090202 0.556953667,8.09448133 1.60279622,6.13892578 C2.64863878,4.18337022 4.18337022,2.64863878 6.13892578,1.60279622 C8.09448133,0.556953667 10.4090202,1.94838828e-16 13.5092038,-1.84824164e-16 Z" />
  </g>
  <use xlink:href="#original" x="100%" y="0" transform="translate(-28,0)"/>
  <use xlink:href="#original" x="100%" y="100%" transform="translate(-28,-28)"/>
  <use xlink:href="#original" x="0" y="100%" transform="translate(0,-28)"/>

  <rect stroke="none" width="100%" height="100%" rx="14"/>
</svg>
