<svg
  xmlns="http://www.w3.org/2000/svg"
  xmlns:xlink="http://www.w3.org/1999/xlink"
  viewBox="0 0 100% 100%"
  preserveAspectRatio="none"
>
  <g id="original" class="original">
    <path d="M15.6319029,-1.99850463e-16 L16.3680971,2.99775695e-16 C19.8303761,-3.3623463e-16 22.5564384,0.649779278 24.8379199,1.86992893 C27.1194014,3.09007858 28.9099214,4.88059859 30.1300711,7.16208008 C31.3502207,9.44356156 32,12.1696239 32,15.6319029 L32,16.3680971 C32,19.8303761 31.3502207,22.5564384 30.1300711,24.8379199 C28.9099214,27.1194014 27.1194014,28.9099214 24.8379199,30.1300711 C22.5564384,31.3502207 19.8303761,32 16.3680971,32 L15.6319029,32 C12.1696239,32 9.44356156,31.3502207 7.16208008,30.1300711 C4.88059859,28.9099214 3.09007858,27.1194014 1.86992893,24.8379199 C0.649779278,22.5564384 1.1207821e-16,19.8303761 -9.99252315e-17,16.3680971 L1.99850463e-16,15.6319029 C-2.2415642e-16,12.1696239 0.649779278,9.44356156 1.86992893,7.16208008 C3.09007858,4.88059859 4.88059859,3.09007858 7.16208008,1.86992893 C9.44356156,0.649779278 12.1696239,2.2415642e-16 15.6319029,-1.99850463e-16 Z" />
  </g>
  <use xlink:href="#original" x="100%" y="0" transform="translate(-32,0)"/>
  <use xlink:href="#original" x="100%" y="100%" transform="translate(-32,-32)"/>
  <use xlink:href="#original" x="0" y="100%" transform="translate(0,-32)"/>

  <rect stroke="none" width="100%" height="100%" rx="16"/>
</svg>
