<svg
  xmlns="http://www.w3.org/2000/svg"
  xmlns:xlink="http://www.w3.org/1999/xlink"
  viewBox="0 0 100% 100%"
  preserveAspectRatio="none"
>
  <g id="original" class="original">
    <path d="M17.9,0h4.3c5,0,7.7,0.7,10.2,2s4.4,3.2,5.7,5.7c1.3,2.4,2,5.1,2,10.2v4.3 c0,5-0.7,7.7-2,10.2c-1.3,2.4-3.2,4.4-5.7,5.7c-2.4,1.3-5.1,2-10.2,2h-4.3c-5,0-7.7-0.7-10.2-2c-2.4-1.3-4.4-3.2-5.7-5.7 s-2-5.1-2-10.2v-4.3c0-5,0.7-7.7,2-10.2S5.2,3.3,7.7,2S12.8,0,17.9,0z"/>
  </g>
  <use xlink:href="#original" x="100%" y="0" transform="translate(-40,0)"/>
  <use xlink:href="#original" x="100%" y="100%" transform="translate(-40,-40)"/>
  <use xlink:href="#original" x="0" y="100%" transform="translate(0,-40)"/>

  <rect stroke="none" width="100%" height="100%" rx="20"/>
</svg>
