<svg
  xmlns="http://www.w3.org/2000/svg"
  xmlns:xlink="http://www.w3.org/1999/xlink"
  viewBox="0 0 100% 100%"
  preserveAspectRatio="none"
>
  <g id="original" class="original">
    <path d="M18.5276115,-4.64314699e-16 L21.4723885,4.64314699e-16 C26.2243743,-4.0861093e-16 29.2073582,0.742604889 31.8147656,2.13706163 C34.422173,3.53151837 36.4684816,5.57782696 37.8629384,8.18523437 C39.2573951,10.7926418 40,13.7756257 40,18.5276115 L40,21.4723885 C40,26.2243743 39.2573951,29.2073582 37.8629384,31.8147656 C36.4684816,34.422173 34.422173,36.4684816 31.8147656,37.8629384 C29.2073582,39.2573951 26.2243743,40 21.4723885,40 L18.5276115,40 C13.7756257,40 10.7926418,39.2573951 8.18523437,37.8629384 C5.57782696,36.4684816 3.53151837,34.422173 2.13706163,31.8147656 C0.742604889,29.2073582 2.72407286e-16,26.2243743 -3.09543132e-16,21.4723885 L3.09543132e-16,18.5276115 C-2.72407286e-16,13.7756257 0.742604889,10.7926418 2.13706163,8.18523437 C3.53151837,5.57782696 5.57782696,3.53151837 8.18523437,2.13706163 C10.7926418,0.742604889 13.7756257,4.0861093e-16 18.5276115,-4.64314699e-16 Z"/>
  </g>
  <use xlink:href="#original" x="100%" y="0" transform="translate(-40,0)"/>
  <use xlink:href="#original" x="100%" y="100%" transform="translate(-40,-40)"/>
  <use xlink:href="#original" x="0" y="100%" transform="translate(0,-40)"/>

  <rect stroke="none" width="100%" height="100%" rx="20"/>
</svg>
