<svg
  xmlns="http://www.w3.org/2000/svg"
  xmlns:xlink="http://www.w3.org/1999/xlink"
  viewBox="0 0 100% 100%"
  preserveAspectRatio="none"
>
  <g id="original" class="original">
    <path d="M19.877301,-2.29903061e-16 L20.122699,3.44854591e-16 C24.3091687,-4.24187407e-16 27.858278,0.8354305 30.7916113,2.40419433 C33.7249447,3.97295817 36.0270418,6.27505533 37.5958057,9.20838867 C39.1645695,12.141722 40,15.6908313 40,19.877301 L40,20.122699 C40,24.3091687 39.1645695,27.858278 37.5958057,30.7916113 C36.0270418,33.7249447 33.7249447,36.0270418 30.7916113,37.5958057 C27.858278,39.1645695 24.3091687,40 20.122699,40 L19.877301,40 C15.6908313,40 12.141722,39.1645695 9.20838867,37.5958057 C6.27505533,36.0270418 3.97295817,33.7249447 2.40419433,30.7916113 C0.8354305,27.858278 1.41395802e-16,24.3091687 -1.1495153e-16,20.122699 L2.29903061e-16,19.877301 C-2.82791605e-16,15.6908313 0.8354305,12.141722 2.40419433,9.20838867 C3.97295817,6.27505533 6.27505533,3.97295817 9.20838867,2.40419433 C12.141722,0.8354305 15.6908313,2.82791605e-16 19.877301,-2.29903061e-16 Z" />
  </g>
  <use xlink:href="#original" x="100%" y="0" transform="translate(-40,0)"/>
  <use xlink:href="#original" x="100%" y="100%" transform="translate(-40,-40)"/>
  <use xlink:href="#original" x="0" y="100%" transform="translate(0,-40)"/>

  <rect stroke="none" width="100%" height="100%" rx="20"/>
</svg>
