<svg
  xmlns="http://www.w3.org/2000/svg"
  xmlns:xlink="http://www.w3.org/1999/xlink"
  viewBox="0 0 100% 100%"
  preserveAspectRatio="none"
>
  <g id="original" class="original">
    <path d="M35.5,0h1c7.6,0,13.9,1.5,19.1,4.3s9.3,6.9,12.1,12.1c2.8,5.2,4.3,11.5,4.3,19.1v1
      c0,7.6-1.5,13.9-4.3,19.1c-2.8,5.2-6.9,9.3-12.1,12.1C50.4,70.5,44.1,72,36.5,72h-1c-7.6,0-13.9-1.5-19.1-4.3
      c-5.2-2.8-9.3-6.9-12.1-12.1S0,44.1,0,36.5v-1c0-7.6,1.5-13.9,4.3-19.1s6.9-9.3,12.1-12.1S27.9,0,35.5,0z"/>
  </g>
  <use xlink:href="#original" x="100%" y="0" transform="translate(-72,0)"/>
  <use xlink:href="#original" x="100%" y="100%" transform="translate(-72,-72)"/>
  <use xlink:href="#original" x="0" y="100%" transform="translate(0,-72)"/>

  <rect stroke="none" width="100%" height="100%" rx="36"/>
</svg>
